<?xml version="1.0" encoding="UTF-8"?>
<svg width="512" height="512" viewBox="0 0 512 512" fill="none" xmlns="http://www.w3.org/2000/svg">
  <rect width="512" height="512" fill="url(#gradient)"/>
  <path d="M256 128C309.019 128 352 170.981 352 224V288C352 341.019 309.019 384 256 384C202.981 384 160 341.019 160 288V224C160 170.981 202.981 128 256 128ZM256 176C229.49 176 208 197.49 208 224V288C208 314.51 229.49 336 256 336C282.51 336 304 314.51 304 288V224C304 197.49 282.51 176 256 176Z" fill="white"/>
  <defs>
    <linearGradient id="gradient" x1="0" y1="0" x2="512" y2="512" gradientUnits="userSpaceOnUse">
      <stop offset="0%" stop-color="#7C3AED"/>
      <stop offset="100%" stop-color="#6366F1"/>
    </linearGradient>
  </defs>
</svg>
